# Blender 3.3.1
# www.blender.org
mtllib c4OBJV.mtl
o Cube
v 0.904993 1.523147 -0.463117
v 0.904993 1.683049 -0.419118
v 1.000000 1.523147 -0.419118
v 0.904993 -1.683049 -0.419117
v 0.904993 -1.523148 -0.463117
v 1.000000 -1.523148 -0.419117
v 1.000000 1.523148 0.419117
v 0.904993 1.683049 0.419117
v 0.904993 1.523148 0.463117
v 1.000000 -1.523147 0.419118
v 0.904993 -1.523147 0.463117
v 0.904993 -1.683049 0.419118
v -0.904993 1.523147 -0.463117
v -1.000000 1.523147 -0.419118
v -0.904993 1.683049 -0.419118
v -1.000000 -1.523148 -0.419117
v -0.904993 -1.523148 -0.463117
v -0.904993 -1.683049 -0.419117
v -1.000000 1.523148 0.419117
v -0.904993 1.523148 0.463117
v -0.904993 1.683049 0.419117
v -0.904993 -1.683049 0.419118
v -0.904993 -1.523147 0.463117
v -1.000000 -1.523147 0.419118
v 1.000000 0.382680 -0.419118
v 0.904993 0.382680 -0.463117
v -0.904993 0.382681 0.463117
v -1.000000 0.382681 0.419117
v 0.904993 0.382681 0.463117
v 1.000000 0.382681 0.419117
v -0.904993 0.382680 -0.463117
v -1.000000 0.382680 -0.419118
v 1.000000 -0.382681 -0.419117
v -1.000000 -0.382680 0.419118
v 0.904993 -0.382680 0.463117
v -0.904993 -0.382681 -0.463117
v 0.904993 -0.382681 -0.463117
v -0.904993 -0.382680 0.463117
v 1.000000 -0.382680 0.419118
v -1.000000 -0.382681 -0.419117
v 0.955342 -0.382681 -0.550656
v 0.955342 0.382680 -0.550656
v -0.955342 -0.382680 0.550656
v -0.955342 0.382681 0.550656
v 1.055635 -0.382680 0.498340
v 1.055635 0.382681 0.498340
v -1.055635 -0.382681 -0.498340
v -1.055635 0.382680 -0.498340
v -0.955342 0.382680 -0.550656
v 0.955342 0.382681 0.550656
v -1.055635 0.382681 0.498340
v 1.055635 0.382680 -0.498340
v 1.055635 -0.382680 -0.498340
v -1.055635 -0.382680 0.498340
v 0.955342 -0.382680 0.550656
v -0.955342 -0.382680 -0.550656
vn -0.3540 -0.5391 -0.7643
vn 0.3540 -0.5391 -0.7643
vn 0.3540 -0.5391 0.7643
vn -0.3540 -0.5391 0.7643
vn -0.6253 0.5441 0.5594
vn -0.7531 0.1746 0.6344
vn -0.7531 0.1746 -0.6344
vn -0.6253 0.5441 -0.5594
vn 0.1752 0.3680 0.9132
vn 0.1768 0.1051 0.9786
vn -0.1768 0.1051 0.9786
vn -0.1752 0.3680 0.9132
vn 0.3540 0.5391 -0.7643
vn -0.3540 0.5391 -0.7643
vn -0.3540 0.5391 0.7643
vn 0.3540 0.5391 0.7643
vn 0.6253 0.5441 -0.5594
vn 0.7531 0.1746 -0.6344
vn 0.7531 0.1746 0.6344
vn 0.6253 0.5441 0.5594
vn 0.1768 0.1051 -0.9786
vn 0.1768 -0.1051 -0.9786
vn 0.7531 -0.1746 -0.6344
vn 0.7531 -0.1746 0.6344
vn 0.1768 -0.1051 0.9786
vn -0.1768 0.1051 -0.9786
vn -0.7531 -0.1746 -0.6344
vn -0.1768 -0.1051 -0.9786
vn -0.1768 -0.1051 0.9786
vn -0.7531 -0.1746 0.6344
vn 0.6254 -0.5441 -0.5593
vn 0.1752 -0.3680 -0.9132
vn 0.1752 -0.3680 0.9132
vn 0.6253 -0.5441 0.5594
vn -0.1752 -0.3680 -0.9132
vn -0.6253 -0.5441 -0.5594
vn -0.1752 0.3680 -0.9132
vn 0.1752 0.3680 -0.9132
vn -0.0000 1.0000 -0.0000
vn -0.0000 -1.0000 -0.0000
vn -0.6254 -0.5441 0.5593
vn -0.1752 -0.3680 0.9132
vn -0.1983 -0.2304 -0.9527
vn -0.1983 0.2304 -0.9527
vn 0.1983 0.2304 -0.9527
vn 0.1983 -0.2304 -0.9527
vn -0.1983 -0.2304 0.9527
vn -0.1983 0.2304 0.9527
vn -0.7169 0.3747 0.5879
vn -0.7169 -0.3747 0.5879
vn 0.7169 -0.3747 -0.5879
vn 0.7169 0.3747 -0.5879
vn 0.7169 0.3747 0.5879
vn 0.7168 -0.3747 0.5880
vn 0.1983 -0.2304 0.9527
vn 0.1983 0.2304 0.9527
vn -0.7169 0.3747 -0.5879
vn -0.7168 -0.3747 -0.5880
vt 0.636876 0.500000
vt 0.613124 0.488124
vt 0.625000 0.511876
vt 0.636876 0.511876
vt 0.625000 0.511876
vt 0.613124 0.511876
vt 0.363124 0.511876
vt 0.363124 0.500000
vt 0.386876 0.488124
vt 0.375000 0.511876
vt 0.386876 0.511876
vt 0.613124 0.738124
vt 0.625000 0.738124
vt 0.636876 0.738124
vt 0.613124 0.750000
vt 0.636876 0.750000
vt 0.613124 0.761876
vt 0.386876 0.738124
vt 0.386876 0.750000
vt 0.363124 0.750000
vt 0.386876 0.761876
vt 0.375000 0.738124
vt 0.363124 0.738124
vt 0.613124 0.250000
vt 0.863124 0.500000
vt 0.613124 0.261876
vt 0.613124 0.250000
vt 0.613124 0.238124
vt 0.625000 0.238124
vt 0.863124 0.511876
vt 0.125000 0.511876
vt 0.386876 0.238124
vt 0.386876 0.250000
vt 0.136876 0.500000
vt 0.386876 0.261876
vt 0.375000 0.238124
vt 0.136876 0.511876
vt 0.613124 0.011876
vt 0.613124 0.988124
vt 0.613124 0.000000
vt 0.863124 0.750000
vt 0.863124 0.738124
vt 0.625000 0.011876
vt 0.136876 0.738124
vt 0.136876 0.750000
vt 0.386876 0.988124
vt 0.386876 0.000000
vt 0.125000 0.738124
vt 0.386876 0.011876
vt 0.533406 0.511876
vt 0.533406 0.488124
vt 0.533406 0.000000
vt 0.533406 0.988124
vt 0.533406 0.011876
vt 0.533406 0.761876
vt 0.533406 0.738124
vt 0.533406 0.261876
vt 0.533406 0.238124
vt 0.471726 0.511876
vt 0.471726 0.011876
vt 0.471726 0.761876
vt 0.471726 0.261876
vt 0.471726 0.488124
vt 0.471726 0.000000
vt 0.471726 0.988124
vt 0.471726 0.738124
vt 0.471726 0.238124
vt 0.471726 0.488124
vt 0.533406 0.488124
vt 0.471726 0.000000
vt 0.471726 0.988124
vt 0.533406 0.000000
vt 0.533406 0.988124
vt 0.471726 0.738124
vt 0.533406 0.738124
vt 0.471726 0.238124
vt 0.533406 0.238124
vt 0.533406 0.261876
vt 0.533406 0.761876
vt 0.533406 0.011876
vt 0.533406 0.511876
vt 0.471726 0.511876
vt 0.471726 0.011876
vt 0.471726 0.761876
vt 0.471726 0.261876
s 1
usemtl Material.001
f 18/37/1 4/7/2 12/23/3 22/44/4
f 28/54/5 19/38/6 14/28/7 32/58/8
f 29/55/9 9/17/10 20/39/11 27/53/12
f 2/4/13 15/30/14 21/42/15 8/14/16
f 25/50/17 3/6/18 7/12/19 30/56/20
f 1/1/21 2/3/13 3/5/18
f 4/7/2 5/8/22 6/10/23
f 7/12/19 8/13/16 9/15/10
f 10/18/24 11/19/25 12/22/3
f 13/24/26 14/27/7 15/29/14
f 16/32/27 17/33/28 18/36/1
f 19/38/6 20/40/11 21/43/15
f 22/44/4 23/45/29 24/48/30
f 18/37/1 22/44/4 24/48/30 16/31/27
f 4/7/2 18/37/1 17/34/28 5/8/22
f 33/59/31 6/11/23 5/9/22 37/63/32
f 27/52/12 20/40/11 19/38/6 28/54/5
f 35/61/33 11/21/25 10/18/24 39/66/34
f 36/62/35 17/35/28 16/32/27 40/67/36
f 8/14/16 21/42/15 20/41/11 9/16/10
f 2/4/13 8/14/16 7/12/19 3/6/18
f 22/44/4 12/23/3 11/20/25 23/45/29
f 21/43/15 15/29/14 14/28/7 19/38/6
f 15/30/14 2/4/13 1/1/21 13/25/26
f 12/23/3 4/7/2 6/11/23 10/18/24
f 31/57/37 13/26/26 1/2/21 26/51/38
f 25/50/39 30/56/39 46/75/39 52/81/39
f 13/26/26 31/57/37 32/58/8 14/28/7
f 9/17/10 29/55/9 30/56/20 7/12/19
f 34/60/40 38/64/40 43/70/40 54/83/40
f 3/6/18 25/50/17 26/51/38 1/2/21
f 26/51/39 25/50/39 52/81/39 42/69/39
f 39/66/40 33/59/40 53/82/40 45/74/40
f 27/52/39 28/54/39 51/80/39 44/72/39
f 24/49/30 34/60/41 40/67/36 16/32/27
f 11/21/25 35/61/33 38/65/42 23/46/29
f 6/11/23 33/59/31 39/66/34 10/18/24
f 23/47/29 38/64/42 34/60/41 24/49/30
f 17/35/28 36/62/35 37/63/32 5/9/22
f 38/65/40 35/61/40 55/84/40 43/71/40
f 30/56/39 29/55/39 50/79/39 46/75/39
f 40/67/40 34/60/40 54/83/40 47/76/40
f 56/85/43 49/78/44 42/69/45 41/68/46
f 43/70/47 44/72/48 51/80/49 54/83/50
f 53/82/51 52/81/52 46/75/53 45/74/54
f 55/84/55 50/79/56 44/73/48 43/71/47
f 54/83/50 51/80/49 48/77/57 47/76/58
f 49/78/44 56/85/43 47/76/58 48/77/57
f 50/79/56 55/84/55 45/74/54 46/75/53
f 52/81/52 53/82/51 41/68/46 42/69/45
f 37/63/40 36/62/40 56/85/40 41/68/40
f 29/55/39 27/53/39 44/73/39 50/79/39
f 36/62/40 40/67/40 47/76/40 56/85/40
f 28/54/39 32/58/39 48/77/39 51/80/39
f 35/61/40 39/66/40 45/74/40 55/84/40
f 31/57/39 26/51/39 42/69/39 49/78/39
f 33/59/40 37/63/40 41/68/40 53/82/40
f 32/58/39 31/57/39 49/78/39 48/77/39
o Cube.001
v 0.613138 0.613138 0.550656
v 0.613138 -0.613138 0.550656
v 0.559796 0.559796 0.789706
v 0.559796 -0.559796 0.789706
v -0.613138 0.613138 0.550656
v -0.613138 -0.613138 0.550656
v -0.559796 0.559796 0.789706
v -0.559796 -0.559796 0.789706
v -0.121363 0.121363 0.792452
v 0.000000 0.167143 0.789706
v 0.121363 0.121363 0.789706
v 0.167143 0.000000 0.792452
v 0.121363 -0.121363 0.792452
v 0.000000 -0.167143 0.792452
v -0.121363 -0.121363 0.792452
v -0.167143 0.000000 0.792452
v -0.099548 -0.099548 0.892000
v -0.099548 0.099548 0.892000
v 0.099548 -0.099548 0.892000
v 0.099548 0.099548 0.892000
v -0.121363 0.000000 0.913815
v 0.121363 0.000000 0.913815
v -0.000000 -0.121363 0.913815
v -0.000000 0.121363 0.913815
v -0.000000 0.000000 0.959595
vn -0.0000 0.9760 0.2178
vn 0.0013 -0.0050 1.0000
vn 0.0013 -0.0049 1.0000
vn -0.0002 -0.0066 1.0000
vn -0.9760 -0.0000 0.2178
vn -0.0000 -0.9760 0.2178
vn 0.9760 -0.0000 0.2178
vn -0.0000 -0.0000 -1.0000
vn -0.0050 0.0013 1.0000
vn -0.0049 0.0013 1.0000
vn -0.0045 0.0017 1.0000
vn -0.0082 0.0082 0.9999
vn -0.0066 -0.0002 1.0000
vn 0.0017 -0.0045 1.0000
vn 0.0066 -0.0002 1.0000
vn 0.0021 0.0030 1.0000
vn -0.5595 -0.5595 0.6115
vn -0.4828 -0.0000 0.8757
vn -0.2029 0.0002 0.9792
vn -0.1319 -0.1319 0.9824
vn -0.5589 0.5607 0.6110
vn -0.1308 0.1355 0.9821
vn 0.2042 0.0037 0.9789
vn 0.1948 0.2146 0.9571
vn 0.5600 0.5618 0.6089
vn 0.4829 0.0004 0.8757
vn 0.1325 -0.1309 0.9825
vn 0.5595 -0.5595 0.6115
vn -0.0000 -0.0000 1.0000
vn -0.0000 -0.4828 0.8757
vn 0.0004 0.4835 0.8754
vn 0.0002 -0.2029 0.9792
vn 0.0015 0.1981 0.9802
vt 0.625000 0.500000
vt 0.375000 0.500000
vt 0.625000 0.750000
vt 0.375000 0.750000
vt 0.875000 0.500000
vt 0.625000 0.250000
vt 0.125000 0.500000
vt 0.375000 0.250000
vt 0.875000 0.750000
vt 0.625000 0.000000
vt 0.625000 1.000000
vt 0.375000 0.000000
vt 0.125000 0.750000
vt 0.375000 1.000000
vt 0.526662 0.903591
vt 0.625000 0.125000
vt 0.875000 0.625000
vt 0.538876 0.873983
vt 0.751736 0.625000
vt 0.527464 0.847950
vt 0.631945 0.625000
vt 0.500521 0.838268
vt 0.500000 0.625000
vt 0.473435 0.848273
vt 0.368056 0.625000
vt 0.463083 0.875426
vt 0.248264 0.625000
vt 0.473310 0.902868
vt 0.375000 0.125000
vt 0.125000 0.625000
vt 0.501630 0.912961
vt 0.500000 0.125000
vt 0.375000 0.000000
vt 0.375000 1.000000
vt 0.125000 0.750000
vt 0.625000 0.000000
vt 0.625000 1.000000
vt 0.875000 0.750000
vt 0.333333 0.791667
vt 0.666667 0.791667
vt 0.500000 0.000000
vt 0.500000 1.000000
vt 0.500000 0.756944
vt 0.369792 0.880208
vt 0.244792 0.755208
vt 0.630208 0.880208
vt 0.755208 0.755208
vt 0.500000 0.876736
s 1
usemtl Material.002
f 57/86/59 61/90/59 63/94/59 59/88/59
f 60/89/60 70/111/61 71/113/62 64/99/62
f 64/97/63 63/95/63 61/91/63 62/93/63
f 62/92/64 58/87/64 60/89/64 64/98/64
f 58/87/65 57/86/65 59/88/65 60/89/65
f 62/93/66 61/91/66 57/86/66 58/87/66
f 63/96/67 72/116/68 65/100/69
f 67/105/70 68/107/70 59/88/70 66/103/70
f 64/99/71 71/113/71 72/116/68 63/96/67
f 70/111/61 60/89/60 69/109/72
f 69/109/73 60/89/73 59/88/73 68/107/73
f 66/103/74 59/88/74 63/96/74 65/100/74
f 73/118/75 77/126/76 72/117/77 71/114/78
f 77/126/76 74/121/79 65/101/80 72/117/77
f 68/108/81 67/106/82 76/125/83 78/128/84
f 69/110/85 68/108/81 78/128/84 75/124/86
f 75/124/86 78/128/84 81/133/87 79/129/88
f 78/128/84 76/125/83 80/131/89 81/133/87
f 81/133/87 80/131/89 74/122/79 77/127/76
f 79/129/88 81/133/87 77/127/76 73/119/75
f 70/112/90 69/110/85 75/124/86 79/130/88
f 71/115/78 70/112/90 79/130/88 73/120/75
f 66/104/91 65/102/80 74/123/79 80/132/89
f 67/106/82 66/104/91 80/132/89 76/125/83
